<mxfile host="65bd71144e">
    <diagram id="JkZr-TuiMrCZ70v0-cwm" name="Page-1">
        <mxGraphModel dx="2623" dy="1179" grid="1" gridSize="10" guides="1" tooltips="1" connect="1" arrows="1" fold="1" page="1" pageScale="1" pageWidth="827" pageHeight="1169" math="0" shadow="0">
            <root>
                <mxCell id="0"/>
                <mxCell id="1" parent="0"/>
                <mxCell id="2" value="" style="whiteSpace=wrap;html=1;" vertex="1" parent="1">
                    <mxGeometry x="-20" y="220" width="1110" height="460" as="geometry"/>
                </mxCell>
                <mxCell id="26" style="edgeStyle=none;html=1;entryX=0;entryY=0.5;entryDx=0;entryDy=0;dashed=1;" edge="1" parent="1" source="3" target="20">
                    <mxGeometry relative="1" as="geometry"/>
                </mxCell>
                <mxCell id="27" value="onScroll and stuck to top&lt;br&gt;- animated" style="edgeLabel;html=1;align=center;verticalAlign=middle;resizable=0;points=[];" vertex="1" connectable="0" parent="26">
                    <mxGeometry x="0.0376" y="-2" relative="1" as="geometry">
                        <mxPoint as="offset"/>
                    </mxGeometry>
                </mxCell>
                <mxCell id="3" value="" style="whiteSpace=wrap;html=1;" vertex="1" parent="1">
                    <mxGeometry x="-20" y="700" width="1110" height="40" as="geometry"/>
                </mxCell>
                <mxCell id="4" value="PORTFOLIO" style="text;html=1;align=center;verticalAlign=middle;resizable=0;points=[];autosize=1;strokeColor=none;fillColor=none;" vertex="1" parent="1">
                    <mxGeometry x="440" y="705" width="90" height="30" as="geometry"/>
                </mxCell>
                <mxCell id="7" value="BLOG" style="text;html=1;align=center;verticalAlign=middle;resizable=0;points=[];autosize=1;strokeColor=none;fillColor=none;" vertex="1" parent="1">
                    <mxGeometry x="530" y="705" width="60" height="30" as="geometry"/>
                </mxCell>
                <mxCell id="9" value="CV" style="text;html=1;align=center;verticalAlign=middle;resizable=0;points=[];autosize=1;strokeColor=none;fillColor=none;" vertex="1" parent="1">
                    <mxGeometry x="590" y="705" width="40" height="30" as="geometry"/>
                </mxCell>
                <mxCell id="10" value="profile image" style="ellipse;whiteSpace=wrap;html=1;" vertex="1" parent="1">
                    <mxGeometry x="455" y="310" width="160" height="150" as="geometry"/>
                </mxCell>
                <mxCell id="11" value="Paul Serban" style="text;html=1;align=center;verticalAlign=middle;resizable=0;points=[];autosize=1;strokeColor=none;fillColor=none;" vertex="1" parent="1">
                    <mxGeometry x="490" y="470" width="90" height="30" as="geometry"/>
                </mxCell>
                <mxCell id="12" value="JAMStack &amp;amp; MERN Software Engineer" style="text;html=1;align=center;verticalAlign=middle;resizable=0;points=[];autosize=1;strokeColor=none;fillColor=none;" vertex="1" parent="1">
                    <mxGeometry x="420" y="500" width="230" height="30" as="geometry"/>
                </mxCell>
                <mxCell id="13" value="paul.alex.serban@gmail.com" style="text;html=1;align=center;verticalAlign=middle;resizable=0;points=[];autosize=1;strokeColor=none;fillColor=none;" vertex="1" parent="1">
                    <mxGeometry x="445" y="530" width="180" height="30" as="geometry"/>
                </mxCell>
                <mxCell id="18" value="sticky navigation" style="whiteSpace=wrap;html=1;" vertex="1" parent="1">
                    <mxGeometry x="-20" y="700" width="100" height="20" as="geometry"/>
                </mxCell>
                <mxCell id="19" value="herro banner&lt;br&gt;- parallax image&lt;br&gt;- profile photo&lt;br&gt;- email&lt;br&gt;&lt;span style=&quot;white-space: pre;&quot;&gt;&#9;&lt;/span&gt;- email obfuscation" style="whiteSpace=wrap;html=1;align=left;" vertex="1" parent="1">
                    <mxGeometry x="-20" y="220" width="170" height="80" as="geometry"/>
                </mxCell>
                <mxCell id="20" value="" style="whiteSpace=wrap;html=1;" vertex="1" parent="1">
                    <mxGeometry x="1360" y="695" width="1110" height="40" as="geometry"/>
                </mxCell>
                <mxCell id="21" value="PORTFOLIO" style="text;html=1;align=center;verticalAlign=middle;resizable=0;points=[];autosize=1;strokeColor=none;fillColor=none;" vertex="1" parent="1">
                    <mxGeometry x="2270" y="700" width="90" height="30" as="geometry"/>
                </mxCell>
                <mxCell id="22" value="BLOG" style="text;html=1;align=center;verticalAlign=middle;resizable=0;points=[];autosize=1;strokeColor=none;fillColor=none;" vertex="1" parent="1">
                    <mxGeometry x="2360" y="700" width="60" height="30" as="geometry"/>
                </mxCell>
                <mxCell id="23" value="CV" style="text;html=1;align=center;verticalAlign=middle;resizable=0;points=[];autosize=1;strokeColor=none;fillColor=none;" vertex="1" parent="1">
                    <mxGeometry x="2420" y="700" width="40" height="30" as="geometry"/>
                </mxCell>
                <mxCell id="24" value="sticky navigation" style="whiteSpace=wrap;html=1;" vertex="1" parent="1">
                    <mxGeometry x="1360" y="695" width="100" height="20" as="geometry"/>
                </mxCell>
                <mxCell id="28" value="Paul Serban" style="text;html=1;align=center;verticalAlign=middle;resizable=0;points=[];autosize=1;strokeColor=none;fillColor=none;fontSize=22;" vertex="1" parent="1">
                    <mxGeometry x="1460" y="695" width="140" height="40" as="geometry"/>
                </mxCell>
            </root>
        </mxGraphModel>
    </diagram>
</mxfile>